<?xml version="1.0" encoding="utf-8"?>
<!-- Generator: Adobe Illustrator 28.0.0, SVG Export Plug-In . SVG Version: 6.00 Build 0)  -->
<svg version="1.1" id="Layer_1" xmlns="http://www.w3.org/2000/svg" xmlns:xlink="http://www.w3.org/1999/xlink" x="0px" y="0px"
	 viewBox="0 0 271.5 271.5" style="enable-background:new 0 0 271.5 271.5;" xml:space="preserve">
<style type="text/css">
	.st0{fill:#BC723B;}
	.st1{fill:#E0DFD8;}
	.st2{fill:#3E4140;}
	.st3{fill:#313332;}
	.st4{fill:#D7A174;}
	.st5{opacity:0.4;fill:#1F1E21;enable-background:new    ;}
	.st6{fill:#F1F2F2;}
	.st7{fill:url(#SVGID_1_);}
	.st8{fill:url(#SVGID_00000011015874362454229650000010147226770210484648_);}
	.st9{opacity:0.3;}
	.st10{fill:#FFFFFF;}
	.st11{fill:url(#SVGID_00000149373789587601560860000017130673942422575781_);}
	.st12{fill:url(#SVGID_00000071551709611285854580000013908329532694624431_);}
	.st13{fill:#453632;}
	.st14{opacity:0.5;fill:url(#SVGID_00000155108176546607168380000004095895850685594302_);enable-background:new    ;}
</style>
<g id="BACKGROUND">
</g>
<g id="OBJECTS">
	<g>
		<path class="st0" d="M191.7,209.7c-7,17.5-22,31-40.4,35.9l14.9-24.2l-8.8-5.6H172l8.7-23.9C185.4,197.1,189.1,203.1,191.7,209.7z
			"/>
		<path class="st0" d="M120.2,245.6c-18.5-4.9-33.5-18.4-40.4-35.9c2.6-6.6,6.4-12.6,11-17.8l8.7,23.9h14.6l-8.8,5.6L120.2,245.6z"
			/>
		<path class="st1" d="M172,215.8h-14.6l8.8,5.6l-14.9,24.2h0c-2.1,0.6-4.2,1-6.3,1.3c-3,0.5-6,0.7-9.2,0.7c-3.2,0-6.4-0.3-9.6-0.8
			c-2-0.3-4-0.7-5.9-1.2h0l-14.9-24.2l8.8-5.6H99.5l-8.7-23.9c5.9-6.6,13.1-11.8,21.3-15.3c2.6-1.1,5.3-2.1,8.1-2.8
			c5-1.3,10.2-2,15.6-2c5.4,0,10.6,0.7,15.6,2c2.8,0.7,5.5,1.7,8.1,2.8c7.2,3,13.6,7.4,19,12.8c0.8,0.8,1.6,1.6,2.3,2.5L172,215.8z"
			/>
		<g>
			<g>
				<path class="st2" d="M144.9,246.9c-3,0.5-6,0.7-9.2,0.7c-3.2,0-6.4-0.3-9.6-0.8l5.7-42.7h7.3L144.9,246.9z"/>
				<path class="st2" d="M140.2,203.6h-8.9c-0.8,0-1.4-0.5-1.5-1.2l-1.4-8.4c-0.1-0.9,0.6-1.7,1.5-1.7h11.7c0.9,0,1.6,0.8,1.5,1.7
					l-1.4,8.4C141.6,203.1,141,203.6,140.2,203.6z"/>
				<path class="st3" d="M139.1,202.6h-7c-0.6,0-1.1,0.5-1.1,1.2v0.8c0,0.6,0.5,1.2,1.1,1.2h7c0.6,0,1.1-0.5,1.1-1.2v-0.8
					C140.1,203.1,139.7,202.6,139.1,202.6z"/>
			</g>
		</g>
		<g>
			<path class="st4" d="M120.2,245.6L120.2,245.6l-14.9-24.2l8.8-5.6H99.5l-8.7-23.9l-2.9-1.1c0,0,6-4.3,10-9.1l0,0l12.1-14.8
				l10.2-2.5v9.4L120.2,245.6z"/>
			<polygon class="st4" points="97.9,181.6 90.8,191.9 90.4,190.8 			"/>
		</g>
		<g>
			<polygon class="st5" points="111.1,177.8 109.8,171.4 111.1,168.6 118.7,166.2 120.3,166.8 			"/>
		</g>
		<g>
			<path class="st4" d="M183.6,190.8l-2.9,1.1l-8.7,23.9h-14.6l8.8,5.6l-14.9,24.2h0l0.1-71.8v-9.4l10.2,2.5l12.2,14.8
				c0,0.1,0.1,0.1,0.1,0.1C177.7,186.6,183.6,190.8,183.6,190.8z"/>
		</g>
		<g>
			<polygon class="st5" points="160.4,177.8 161.7,171.4 160.4,168.6 152.9,166.2 151.2,166.8 			"/>
		</g>
		<g>
			<g>
				<path class="st6" d="M135.8,192.5c-14.8,2.9-15.5,16.2-15.5,16.2s-7.4-23.3-9.1-30.1c-0.2-0.8,0-1.7,0.6-2.4l8.5-9.3v7
					C120.2,173.8,125.4,192.5,135.8,192.5z"/>
			</g>
			<g>
				<path class="st6" d="M135.8,192.5c14.8,2.9,15.5,16.2,15.5,16.2s7.4-23.3,9.1-30.1c0.2-0.8,0-1.7-0.6-2.4l-8.5-9.3v7
					C151.2,173.8,146.1,192.5,135.8,192.5z"/>
			</g>
		</g>
		
			<radialGradient id="SVGID_1_" cx="174.9797" cy="-43.2445" r="31.3676" gradientTransform="matrix(0.6092 -1.159 -0.8505 -0.5734 -21.5469 377.8647)" gradientUnits="userSpaceOnUse">
			<stop  offset="0.6192" style="stop-color:#F2AD8B"/>
			<stop  offset="1" style="stop-color:#DB8B6F"/>
		</radialGradient>
		<path class="st7" d="M135.8,192.5L135.8,192.5c-8.6,0-15.5-6.9-15.5-15.5v-14.8c0-8.6,6.9-15.5,15.5-15.5l0,0
			c8.6,0,15.5,6.9,15.5,15.5V177C151.2,185.5,144.3,192.5,135.8,192.5z"/>
		<g>
			<g>
				
					<radialGradient id="SVGID_00000147898544597357274700000006998128339341126018_" cx="90.8182" cy="188.5391" r="104.1875" gradientTransform="matrix(1 0 0 -1 0 274)" gradientUnits="userSpaceOnUse">
					<stop  offset="0.6192" style="stop-color:#F2AD8B"/>
					<stop  offset="1" style="stop-color:#DB8B6F"/>
				</radialGradient>
				<path style="fill:url(#SVGID_00000147898544597357274700000006998128339341126018_);" d="M150.8,55.8h-30
					c-16.7,0-30.3,13.6-30.3,30.3v38.1c0,25,20.3,45.3,45.3,45.3l0,0c25,0,45.3-20.3,45.3-45.3V86.1
					C181.1,69.4,167.5,55.8,150.8,55.8z"/>
				<g class="st9">
					<g>
						<g>
							<path class="st10" d="M136.5,149.9c-7,0-13.8-3.1-19.1-8.6c-0.5-0.5-0.5-1.4,0.1-1.9c0.5-0.5,1.4-0.5,1.9,0.1
								c4.8,5,10.9,7.8,17.1,7.8c6.2,0,12.2-2.7,16.9-7.6c0.5-0.5,1.4-0.6,1.9,0s0.6,1.4,0,1.9C150.1,146.9,143.4,149.9,136.5,149.9
								z"/>
						</g>
					</g>
				</g>
				<g class="st9">
					<ellipse class="st10" cx="118.1" cy="105.8" rx="7.7" ry="7.7"/>
					<ellipse class="st10" cx="156.1" cy="105.8" rx="7.8" ry="7.8"/>
				</g>
				<g>
					
						<radialGradient id="SVGID_00000036211218680268124070000001829611872682791552_" cx="75.5457" cy="169.5798" r="22.4566" gradientTransform="matrix(1 0 0 -1 0 274)" gradientUnits="userSpaceOnUse">
						<stop  offset="0.6192" style="stop-color:#F2AD8B"/>
						<stop  offset="1" style="stop-color:#DB8B6F"/>
					</radialGradient>
					<path style="fill:url(#SVGID_00000036211218680268124070000001829611872682791552_);" d="M90.4,96.7v29.8
						c-8.3,0-14.9-6.7-14.9-14.9C75.5,103.3,82.1,96.7,90.4,96.7z"/>
				</g>
				<g>
					
						<radialGradient id="SVGID_00000106140383424021198490000014926467534042524037_" cx="1909.2566" cy="169.5798" r="22.4566" gradientTransform="matrix(-1 0 0 -1 2105.2061 274)" gradientUnits="userSpaceOnUse">
						<stop  offset="0.6192" style="stop-color:#F2AD8B"/>
						<stop  offset="1" style="stop-color:#DB8B6F"/>
					</radialGradient>
					<path style="fill:url(#SVGID_00000106140383424021198490000014926467534042524037_);" d="M181.1,96.7v29.8
						c8.3,0,14.9-6.7,14.9-14.9C196,103.3,189.4,96.7,181.1,96.7z"/>
				</g>
			</g>
			<g>
				<ellipse class="st13" cx="116.7" cy="104.4" rx="7.7" ry="7.7"/>
				<ellipse class="st13" cx="154.8" cy="104.4" rx="7.8" ry="7.8"/>
			</g>
		</g>
		<g>
			<g>
				<path class="st2" d="M186.8,101.8c0.1-3.1-0.2-6.2,0.1-9.2c0.4-3.4,1.4-6.8,2.8-9.8c3-6.7,1.4-15.7-1.2-22.2
					c-2.6-6.8-7-12.9-12.7-17.4c-2-1.5-4.2-2.8-6.6-3.4c-1.2-0.3-4.5-1.3-5.7-0.6c2.7-1.6,4.6-4.6,5-7.7c-0.1,1.1-9-0.4-9.9-0.6
					c-3.3-0.8-6.5-1.9-9.8-2.9c-4.4-1.4-8.4-3.2-13-3.7c-8.8-1.1-18.1,1.4-25.4,6.3c-3.2,2.1-6,4.9-8,8.3c-0.9,1.6-2,3.5-2.1,5.4
					c-0.1,0.5-0.3,4.2,0.5,4.2c-4.7,0.1-9.1,1.2-12.8,4.2c-3.5,2.9-5.9,7.2-6.5,11.8c-0.8,5.9,1.3,11.6,2.6,17.2
					c1.2,5.2,1,10.6,0.8,15.9c0,0.4,5.1-0.8,5.5-0.8V86.2c0-16.7,13.6-30.3,30.3-30.3c0,0,30.1,0,30.1,0c9.2,0,18.1,4.3,23.8,11.5
					c3.7,4.7,5.7,10.5,6.3,16.4c0.3,2.7,0.1,5.4,0,8.1c-0.1,1.2-0.2,2.4-0.3,3.7c-0.1,1.1,0.4,2.3,0.6,3.4c0.2,2,0.3,4,0.4,6
					c0.1,1.6,1.4,2.2,2.6,3.1c0.4,0.3,2.5,1.6,2.5,2.1C186.6,107.4,186.7,104.6,186.8,101.8z"/>
				<g>
					<g>
						<path class="st2" d="M86.8,118.5h3.6V94.6H85v22C84.9,117.7,85.8,118.5,86.8,118.5z"/>
					</g>
				</g>
				<g>
					<g>
						<path class="st2" d="M184.7,118.5h-3.6V94.6h5.5v22C186.6,117.7,185.7,118.5,184.7,118.5z"/>
					</g>
				</g>
				<path class="st2" d="M89.5,106.3c0.3,0.6,0.7,1.2,0.9,1.6c-0.3-0.4,0.7-2.6,0.8-3.1c0.3-1,0.6-2.1,0.9-3.1
					c0.7-2.7,1.7-5.8,3.9-7.5c1.7-1.3,3.4-2.5,5.1-3.8c1.6-1.2,3.2-2.4,4-4.3c0.9-2.1,1-4.5,1.4-6.7c0,0.3,2.7,2.1,3.1,2.4
					c1.1,0.9,2.3,1.7,3.5,2.4c2.4,1.4,5,2.6,7.6,3.6c5.8,2.1,12.6,3.3,18.8,2.1c3.5-0.7,6.8-2.2,9.9-3.9c4.2-2.4,7.7-5.3,12.8-5.6
					c4.2-0.3,10.9,0.9,12.3,5.6c1.3,4.3-0.7,9.5,2.1,13.4c0.6,0.8,1.3,1.4,1.9,2.2c2.2,2.5,3,5.9,3.2,9.2c-0.1-1.5,1.7-3.7,2.2-5.1
					c0.7-2.2,1.1-4.7,1.4-6.9c0.8-5,1-10.1,0.7-15.2c-0.2-2.8-0.9-5-1.8-7.5c-0.8-2.2-0.7-4.7-1.5-7c-1.4-4.2-4-8-7.4-10.9
					c-10.2-8.9-25.3-10.5-38.2-10.5c-50.3,0-50.7,32.4-50.7,32.4c0.6,3.8,1.2,7.5,1.7,11.3c0,1.5,0.6,3.1,0.8,4.6
					c0.2,1.6,0.2,3.2,0,4.8c-0.1,1.1-0.5,2.2-0.2,3.2C88.7,104.5,89.1,105.4,89.5,106.3z"/>
			</g>
		</g>
		<g>
			<g>
				<path class="st13" d="M135.9,148c-7,0-13.8-3.1-19.1-8.6c-0.5-0.5-0.5-1.4,0.1-1.9c0.5-0.5,1.4-0.5,1.9,0.1
					c4.8,5,10.9,7.8,17.1,7.8c6.2,0,12.2-2.7,16.9-7.6c0.5-0.5,1.4-0.6,1.9,0s0.6,1.4,0,1.9C149.5,145,142.8,148,135.9,148z"/>
			</g>
		</g>
		<g>
			<g>
				<g>
					<path class="st10" d="M159.8,100.2c-1.2-1.5-3.1-2.5-5.2-2.5c-1.6,0-2.9,0.6-4.1,1.4c-0.4,0.3-0.8,0.6-1,1
						c-0.9,1.1-1.5,2.6-1.5,4.1c0,2.1,1,4,2.6,5.2c-0.9-1.1-1.4-2.5-1.4-4.1c0-0.7,0.1-1.4,0.3-2c0.6,0.9,1.5,1.5,2.6,1.5
						c1.7,0,3.1-1.4,3.1-3.1c0-1.1-0.6-2-1.5-2.6c0.6-0.2,1.3-0.3,2-0.3C157.3,98.9,158.7,99.4,159.8,100.2z"/>
				</g>
			</g>
		</g>
		<path class="st10" d="M121.8,100.2c-1.2-1.5-3.1-2.5-5.2-2.5c-1.6,0-2.9,0.6-4.1,1.4c-0.4,0.3-0.8,0.6-1,1
			c-0.9,1.1-1.5,2.6-1.5,4.1c0,2.1,1,4,2.6,5.2c-0.9-1.1-1.4-2.5-1.4-4.1c0-0.7,0.1-1.4,0.3-2c0.6,0.9,1.5,1.5,2.6,1.5
			c1.7,0,3.1-1.4,3.1-3.1c0-1.1-0.6-2-1.5-2.6c0.6-0.2,1.3-0.3,2-0.3C119.3,98.9,120.7,99.4,121.8,100.2z"/>
		
			<radialGradient id="SVGID_00000026882741719341941680000017363627639023340197_" cx="125.2511" cy="97.8398" r="74.8131" gradientTransform="matrix(1 0 0 -1 0 274)" gradientUnits="userSpaceOnUse">
			<stop  offset="0.6777" style="stop-color:#1F1E21;stop-opacity:0"/>
			<stop  offset="1" style="stop-color:#1F1E21"/>
		</radialGradient>
		<path style="opacity:0.5;fill:url(#SVGID_00000026882741719341941680000017363627639023340197_);enable-background:new    ;" d="
			M191.7,209.7c-8.9,22.2-30.6,37.9-56,37.9s-47.1-15.7-56-37.9c5.9-14.9,17.6-26.8,32.3-33.1c7.3-3.1,15.2-4.8,23.6-4.8
			c8.4,0,16.4,1.7,23.6,4.8c7.2,3,13.6,7.4,19,12.8C184.1,195.2,188.7,202,191.7,209.7z"/>
	</g>
</g>
</svg>
