<?xml version="1.0" encoding="utf-8"?>
<!-- Generator: Adobe Illustrator 24.3.0, SVG Export Plug-In . SVG Version: 6.00 Build 0)  -->
<svg version="1.1" xmlns="http://www.w3.org/2000/svg" xmlns:xlink="http://www.w3.org/1999/xlink" x="0px" y="0px"
	 viewBox="0 0 271.5 271.5" style="enable-background:new 0 0 271.5 271.5;" xml:space="preserve">
<style type="text/css">
	.st0{fill:#BC723B;}
	.st1{fill:#E0DFD8;}
	.st2{fill:#3E4140;}
	.st3{fill:#313332;}
	.st4{fill:#D7A174;}
	.st5{opacity:0.4;fill:#1F1E21;}
	.st6{fill:#F1F2F2;}
	.st7{fill:url(#SVGID_1_);}
	.st8{fill:url(#SVGID_2_);}
	.st9{opacity:0.3;}
	.st10{fill:#FFFFFF;}
	.st11{fill:url(#SVGID_3_);}
	.st12{fill:url(#SVGID_4_);}
	.st13{fill:#453632;}
	.st14{opacity:0.5;fill:url(#SVGID_5_);}
</style>
<g id="BACKGROUND">
</g>
<g id="OBJECTS">
	<g>
		<path class="st0" d="M191.71,209.69c-6.99,17.53-21.97,30.99-40.44,35.89l14.9-24.19l-8.78-5.58h14.57l8.72-23.92
			C185.35,197.09,189.11,203.1,191.71,209.69z"/>
		<path class="st0" d="M120.23,245.58c-18.47-4.9-33.45-18.37-40.44-35.89c2.63-6.58,6.39-12.6,11.02-17.8l8.72,23.92h14.55
			l-8.75,5.58L120.23,245.58z"/>
		<path class="st1" d="M171.96,215.81h-14.57l8.78,5.58l-14.9,24.19h-0.03c-2.09,0.57-4.2,1-6.34,1.33c-2.98,0.46-6.04,0.7-9.16,0.7
			c-3.25,0-6.45-0.27-9.56-0.79c-2-0.3-3.98-0.73-5.93-1.25h-0.03l-14.9-24.19l8.75-5.58H99.53l-8.72-23.92
			c5.85-6.56,13.14-11.81,21.32-15.3c2.6-1.11,5.31-2.06,8.07-2.79c4.96-1.33,10.18-2.03,15.55-2.03c5.39,0,10.59,0.7,15.55,2.03
			c2.79,0.73,5.47,1.68,8.07,2.79c7.18,3.03,13.6,7.42,18.99,12.84c0.81,0.79,1.57,1.63,2.33,2.46L171.96,215.81z"/>
		<g>
			<g>
				<path class="st2" d="M144.9,246.87c-2.98,0.48-6.04,0.74-9.16,0.74c-3.25,0-6.45-0.28-9.56-0.82l5.66-42.68h7.26L144.9,246.87z"
					/>
				<path class="st2" d="M140.22,203.59h-8.95c-0.75,0-1.39-0.53-1.51-1.25l-1.35-8.4c-0.14-0.9,0.57-1.71,1.51-1.71h11.66
					c0.94,0,1.65,0.81,1.51,1.71l-1.35,8.4C141.62,203.06,140.98,203.59,140.22,203.59z"/>
				<path class="st3" d="M139.06,202.56h-7.04c-0.6,0-1.09,0.52-1.09,1.16v0.77c0,0.64,0.49,1.16,1.09,1.16h7.04
					c0.6,0,1.09-0.52,1.09-1.16v-0.77C140.15,203.08,139.66,202.56,139.06,202.56z"/>
			</g>
		</g>
		<g>
			<path class="st4" d="M120.25,245.58h-0.03l-14.9-24.19l8.75-5.58H99.53l-8.72-23.92l-2.95-1.14c0,0,6.04-4.28,10.02-9.13
				l0.03-0.03l12.11-14.76l10.18-2.49v9.45L120.25,245.58z"/>
			<polygon class="st4" points="97.88,181.62 90.81,191.89 90.4,190.75 			"/>
		</g>
		<g>
			<polygon class="st5" points="111.09,177.83 109.8,171.4 111.09,168.64 118.65,166.22 120.26,166.84 			"/>
		</g>
		<g>
			<path class="st4" d="M183.64,190.75l-2.95,1.14l-8.72,23.92h-14.57l8.78,5.58l-14.9,24.19h-0.03l0.05-71.78v-9.45l10.16,2.49
				l12.16,14.79c0.03,0.05,0.08,0.08,0.11,0.14C177.71,186.55,183.64,190.75,183.64,190.75z"/>
		</g>
		<g>
			<polygon class="st5" points="160.41,177.83 161.69,171.4 160.41,168.64 152.85,166.22 151.24,166.84 			"/>
		</g>
		<g>
			<g>
				<path class="st6" d="M135.75,192.46c-14.84,2.95-15.49,16.2-15.49,16.2s-7.42-23.27-9.1-30.15c-0.19-0.84,0.03-1.73,0.62-2.38
					l8.48-9.29v6.96C120.25,173.79,125.43,192.46,135.75,192.46z"/>
			</g>
			<g>
				<path class="st6" d="M135.75,192.46c14.84,2.95,15.49,16.2,15.49,16.2s7.42-23.27,9.1-30.15c0.19-0.84-0.03-1.73-0.62-2.38
					l-8.48-9.29v6.96C151.24,173.79,146.07,192.46,135.75,192.46z"/>
			</g>
		</g>
		
			<radialGradient id="SVGID_1_" cx="281.7693" cy="234.9375" r="31.3676" gradientTransform="matrix(0.6092 -1.159 0.8505 0.5734 -249.638 391.7149)" gradientUnits="userSpaceOnUse">
			<stop  offset="0.6192" style="stop-color:#F2AD8B"/>
			<stop  offset="1" style="stop-color:#DB8B6F"/>
		</radialGradient>
		<path class="st7" d="M135.75,192.47L135.75,192.47c-8.56,0-15.49-6.94-15.49-15.49v-14.84c0-8.56,6.94-15.49,15.49-15.49h0
			c8.56,0,15.49,6.94,15.49,15.49v14.84C151.24,185.53,144.3,192.47,135.75,192.47z"/>
		<g>
			<g>
				<radialGradient id="SVGID_2_" cx="90.8182" cy="85.4587" r="104.1875" gradientUnits="userSpaceOnUse">
					<stop  offset="0.6192" style="stop-color:#F2AD8B"/>
					<stop  offset="1" style="stop-color:#DB8B6F"/>
				</radialGradient>
				<path class="st8" d="M150.77,55.83h-30.04c-16.74,0-30.32,13.57-30.32,30.32v38.07c0,25.04,20.3,45.34,45.34,45.34h0
					c25.04,0,45.34-20.3,45.34-45.34V86.14C181.09,69.4,167.51,55.83,150.77,55.83z"/>
				<g class="st9">
					<g>
						<g>
							<path class="st10" d="M136.53,149.91c-7.02,0-13.8-3.06-19.1-8.63c-0.52-0.54-0.49-1.4,0.05-1.92
								c0.54-0.51,1.4-0.5,1.92,0.05c4.78,5.02,10.87,7.79,17.14,7.79c6.17,0,12.18-2.69,16.93-7.57c0.52-0.54,1.38-0.55,1.92-0.03
								c0.54,0.52,0.55,1.38,0.03,1.92C150.14,146.93,143.43,149.91,136.53,149.91z"/>
						</g>
					</g>
				</g>
				<g class="st9">
					
						<ellipse transform="matrix(0.7071 -0.7071 0.7071 0.7071 -40.1915 114.4935)" class="st10" cx="118.11" cy="105.76" rx="7.75" ry="7.75"/>
					
						<ellipse transform="matrix(0.2305 -0.9731 0.9731 0.2305 17.2111 233.289)" class="st10" cx="156.11" cy="105.76" rx="7.75" ry="7.75"/>
				</g>
				<g>
					<radialGradient id="SVGID_3_" cx="75.5457" cy="104.418" r="22.4566" gradientUnits="userSpaceOnUse">
						<stop  offset="0.6192" style="stop-color:#F2AD8B"/>
						<stop  offset="1" style="stop-color:#DB8B6F"/>
					</radialGradient>
					<path class="st11" d="M90.41,96.65v29.82c-8.27,0-14.93-6.66-14.93-14.89C75.48,103.31,82.14,96.65,90.41,96.65z"/>
				</g>
				<g>
					
						<radialGradient id="SVGID_4_" cx="2165.2566" cy="104.418" r="22.4566" gradientTransform="matrix(-1 0 0 1 2361.2061 0)" gradientUnits="userSpaceOnUse">
						<stop  offset="0.6192" style="stop-color:#F2AD8B"/>
						<stop  offset="1" style="stop-color:#DB8B6F"/>
					</radialGradient>
					<path class="st12" d="M181.09,96.65v29.82c8.27,0,14.93-6.66,14.93-14.89C196.02,103.31,189.35,96.65,181.09,96.65z"/>
				</g>
			</g>
			<g>
				
					<ellipse transform="matrix(0.7071 -0.7071 0.7071 0.7071 -39.6268 113.1302)" class="st13" cx="116.75" cy="104.4" rx="7.75" ry="7.75"/>
				
					<ellipse transform="matrix(0.2305 -0.9731 0.9731 0.2305 17.4886 230.9134)" class="st13" cx="154.75" cy="104.4" rx="7.75" ry="7.75"/>
			</g>
		</g>
		<g>
			<g>
				<path class="st2" d="M186.8,101.76c0.14-3.07-0.19-6.17,0.14-9.22c0.37-3.37,1.37-6.76,2.75-9.83
					c2.99-6.67,1.35-15.68-1.16-22.25c-2.59-6.79-7.01-12.9-12.74-17.39c-1.97-1.54-4.16-2.78-6.58-3.43
					c-1.21-0.33-4.54-1.3-5.7-0.61c2.72-1.63,4.62-4.58,4.97-7.73c-0.13,1.11-8.98-0.36-9.86-0.56c-3.32-0.75-6.53-1.89-9.78-2.89
					c-4.38-1.35-8.43-3.16-13.04-3.72c-8.76-1.06-18.08,1.38-25.4,6.31c-3.19,2.15-6,4.94-7.97,8.26c-0.94,1.59-1.96,3.51-2.14,5.36
					c-0.05,0.5-0.33,4.25,0.51,4.23c-4.7,0.11-9.05,1.17-12.76,4.24c-3.54,2.94-5.91,7.24-6.51,11.8
					c-0.76,5.86,1.29,11.57,2.55,17.2c1.16,5.18,0.99,10.64,0.83,15.95c-0.01,0.41,5.14-0.82,5.46-0.82V86.15
					c0-16.74,13.57-30.31,30.31-30.31c0,0,30.06,0,30.07,0c9.22,0,18.09,4.3,23.8,11.54c3.73,4.73,5.7,10.5,6.33,16.44
					c0.29,2.69,0.15,5.39-0.04,8.08c-0.09,1.22-0.24,2.44-0.33,3.65c-0.08,1.1,0.43,2.34,0.56,3.45c0.24,2,0.31,4,0.4,6
					c0.07,1.58,1.41,2.21,2.57,3.11c0.39,0.3,2.5,1.57,2.47,2.13C186.6,107.39,186.68,104.58,186.8,101.76z"/>
				<g>
					<g>
						<path class="st2" d="M86.79,118.48h3.62V94.62h-5.46v22.02C84.95,117.66,85.77,118.48,86.79,118.48z"/>
					</g>
				</g>
				<g>
					<g>
						<path class="st2" d="M184.71,118.48h-3.62V94.62h5.46v22.02C186.55,117.66,185.72,118.48,184.71,118.48z"/>
					</g>
				</g>
				<path class="st2" d="M89.5,106.25c0.3,0.59,0.65,1.15,0.93,1.62c-0.26-0.43,0.66-2.61,0.81-3.11c0.3-1.03,0.63-2.05,0.9-3.08
					c0.7-2.66,1.65-5.77,3.95-7.47c1.72-1.27,3.44-2.53,5.13-3.84c1.55-1.2,3.19-2.43,3.99-4.27c0.91-2.1,1.02-4.46,1.38-6.69
					c-0.04,0.27,2.69,2.1,3.05,2.38c1.12,0.87,2.26,1.7,3.48,2.43c2.4,1.44,4.97,2.62,7.61,3.57c5.82,2.1,12.62,3.28,18.77,2.08
					c3.49-0.68,6.78-2.17,9.86-3.9c4.25-2.4,7.7-5.28,12.81-5.61c4.22-0.27,10.87,0.87,12.26,5.57c1.27,4.33-0.68,9.53,2.11,13.44
					c0.56,0.79,1.3,1.43,1.94,2.17c2.16,2.48,3.02,5.86,3.17,9.15c-0.07-1.53,1.72-3.66,2.22-5.1c0.74-2.15,1.06-4.65,1.4-6.9
					c0.76-5.02,0.99-10.12,0.68-15.19c-0.17-2.78-0.89-4.96-1.78-7.53c-0.77-2.22-0.7-4.69-1.47-6.99
					c-1.41-4.23-4.01-7.97-7.35-10.9c-10.16-8.94-25.27-10.55-38.22-10.55c-50.35,0-50.69,32.39-50.69,32.39
					c0.57,3.75,1.15,7.51,1.72,11.26c0,1.48,0.58,3.08,0.79,4.55c0.23,1.63,0.22,3.18,0.01,4.8c-0.14,1.05-0.47,2.15-0.23,3.21
					C88.72,104.53,89.07,105.42,89.5,106.25z"/>
			</g>
		</g>
		<g>
			<g>
				<path class="st13" d="M135.86,148c-7.02,0-13.8-3.06-19.1-8.63c-0.52-0.54-0.49-1.4,0.05-1.92c0.54-0.51,1.4-0.5,1.92,0.05
					c4.78,5.02,10.87,7.79,17.14,7.79c6.17,0,12.18-2.69,16.93-7.57c0.52-0.54,1.38-0.55,1.92-0.03c0.54,0.52,0.55,1.38,0.03,1.92
					C149.47,145.02,142.77,148,135.86,148z"/>
			</g>
		</g>
		<g>
			<g>
				<g>
					<path class="st10" d="M159.84,100.23c-1.24-1.54-3.11-2.53-5.23-2.53c-1.55,0-2.95,0.56-4.08,1.45
						c-0.42,0.26-0.77,0.6-1.02,1.02c-0.91,1.13-1.48,2.55-1.48,4.12c0,2.12,1.01,4.03,2.58,5.23c-0.87-1.1-1.4-2.53-1.4-4.08
						c0-0.7,0.14-1.37,0.34-2c0.56,0.86,1.48,1.46,2.58,1.46c1.72,0,3.12-1.4,3.12-3.12c0-1.1-0.6-2.02-1.47-2.58
						c0.64-0.21,1.31-0.35,2.01-0.35C157.31,98.85,158.74,99.38,159.84,100.23z"/>
				</g>
			</g>
		</g>
		<path class="st10" d="M121.84,100.23c-1.24-1.54-3.11-2.53-5.23-2.53c-1.55,0-2.95,0.56-4.08,1.45c-0.42,0.26-0.77,0.6-1.02,1.02
			c-0.91,1.13-1.48,2.55-1.48,4.12c0,2.12,1.01,4.03,2.58,5.23c-0.88-1.1-1.4-2.53-1.4-4.08c0-0.7,0.14-1.37,0.34-2
			c0.56,0.86,1.48,1.46,2.58,1.46c1.72,0,3.12-1.4,3.12-3.12c0-1.1-0.6-2.02-1.47-2.58c0.64-0.21,1.31-0.35,2.01-0.35
			C119.31,98.85,120.73,99.38,121.84,100.23z"/>
		<radialGradient id="SVGID_5_" cx="125.2511" cy="176.158" r="74.8131" gradientUnits="userSpaceOnUse">
			<stop  offset="0.6777" style="stop-color:#1F1E21;stop-opacity:0"/>
			<stop  offset="1" style="stop-color:#1F1E21"/>
		</radialGradient>
		<path class="st14" d="M191.71,209.69c-8.86,22.21-30.58,37.92-55.96,37.92c-25.38,0-47.11-15.71-55.96-37.92
			c5.9-14.87,17.63-26.84,32.34-33.1c7.26-3.11,15.25-4.82,23.62-4.82c8.4,0,16.39,1.71,23.62,4.82c7.18,3.03,13.6,7.42,18.99,12.84
			C184.1,195.15,188.68,202.03,191.71,209.69z"/>
	</g>
	<g>
		<path class="st13" d="M-170.01,254.13l-0.05-0.13v-1.85C-170.06,252.82-170.04,253.49-170.01,254.13z"/>
	</g>
	<g>
		<path class="st13" d="M-80.44,252.52v1.5l-0.03,0.11C-80.44,253.6-80.44,253.06-80.44,252.52z"/>
	</g>
</g>
</svg>
