<?xml version="1.0" encoding="utf-8"?>
<!-- Generator: Adobe Illustrator 28.0.0, SVG Export Plug-In . SVG Version: 6.00 Build 0)  -->
<svg version="1.1" id="Layer_1" xmlns="http://www.w3.org/2000/svg" xmlns:xlink="http://www.w3.org/1999/xlink" x="0px" y="0px"
	 viewBox="0 0 16 16" style="enable-background:new 0 0 16 16;" xml:space="preserve">
<style type="text/css">
	.st0{fill:#BC723B;}
	.st1{fill:#E0DFD8;}
	.st2{fill:#3E4140;}
	.st3{fill:#313332;}
	.st4{fill:#D7A174;}
	.st5{opacity:0.4;fill:#1F1E21;enable-background:new    ;}
	.st6{fill:#F1F2F2;}
	.st7{fill:url(#SVGID_1_);}
	.st8{fill:url(#SVGID_00000180330851343221181780000010892340641879565242_);}
	.st9{opacity:0.3;}
	.st10{fill:#FFFFFF;}
	.st11{fill:url(#SVGID_00000034786913017855483990000015683189528600980891_);}
	.st12{fill:url(#SVGID_00000136375310130371416330000009868867894204607639_);}
	.st13{fill:#453632;}
	.st14{opacity:0.5;fill:url(#SVGID_00000150812251143360364900000013291966616553548187_);enable-background:new    ;}
</style>
<g id="BACKGROUND">
</g>
<g id="OBJECTS">
	<g>
		<path class="st0" d="M12,13.3c-0.5,1.3-1.6,2.2-2.9,2.6l1.1-1.7l-0.6-0.4h1l0.6-1.7C11.5,12.4,11.8,12.8,12,13.3z"/>
		<path class="st0" d="M6.9,15.9c-1.3-0.4-2.4-1.3-2.9-2.6c0.2-0.5,0.5-0.9,0.8-1.3l0.6,1.7h1l-0.6,0.4L6.9,15.9z"/>
		<path class="st1" d="M10.6,13.7h-1l0.6,0.4l-1.1,1.7h0c-0.1,0-0.3,0.1-0.5,0.1C8.4,16,8.2,16,8,16c-0.2,0-0.5,0-0.7-0.1
			c-0.1,0-0.3-0.1-0.4-0.1h0l-1.1-1.7l0.6-0.4h-1L4.8,12c0.4-0.5,0.9-0.8,1.5-1.1c0.2-0.1,0.4-0.1,0.6-0.2c0.4-0.1,0.7-0.1,1.1-0.1
			c0.4,0,0.8,0.1,1.1,0.1c0.2,0.1,0.4,0.1,0.6,0.2c0.5,0.2,1,0.5,1.4,0.9c0.1,0.1,0.1,0.1,0.2,0.2L10.6,13.7z"/>
		<g>
			<g>
				<path class="st2" d="M8.7,15.9C8.4,16,8.2,16,8,16c-0.2,0-0.5,0-0.7-0.1l0.4-3.1h0.5L8.7,15.9z"/>
				<path class="st2" d="M8.3,12.9H7.7c-0.1,0-0.1,0-0.1-0.1l-0.1-0.6c0-0.1,0-0.1,0.1-0.1h0.8c0.1,0,0.1,0.1,0.1,0.1l-0.1,0.6
					C8.4,12.8,8.4,12.9,8.3,12.9z"/>
				<path class="st3" d="M8.2,12.8H7.7c0,0-0.1,0-0.1,0.1v0.1c0,0,0,0.1,0.1,0.1h0.5c0,0,0.1,0,0.1-0.1L8.2,12.8
					C8.3,12.8,8.3,12.8,8.2,12.8z"/>
			</g>
		</g>
		<g>
			<path class="st4" d="M6.9,15.9L6.9,15.9l-1.1-1.7l0.6-0.4h-1L4.8,12l-0.2-0.1c0,0,0.4-0.3,0.7-0.7l0,0l0.9-1.1L6.9,10v0.7
				L6.9,15.9z"/>
			<polygon class="st4" points="5.3,11.3 4.8,12 4.8,11.9 			"/>
		</g>
		<g>
			<polygon class="st5" points="6.2,11 6.1,10.5 6.2,10.4 6.8,10.2 6.9,10.2 			"/>
		</g>
		<g>
			<path class="st4" d="M11.4,11.9L11.2,12l-0.6,1.7h-1l0.6,0.4l-1.1,1.7h0l0-5.1V10l0.7,0.2l0.9,1.1c0,0,0,0,0,0
				C11,11.6,11.4,11.9,11.4,11.9z"/>
		</g>
		<g>
			<polygon class="st5" points="9.8,11 9.9,10.5 9.8,10.4 9.2,10.2 9.1,10.2 			"/>
		</g>
		<g>
			<g>
				<path class="st6" d="M8,12.1c-1.1,0.2-1.1,1.2-1.1,1.2s-0.5-1.7-0.7-2.2c0-0.1,0-0.1,0-0.2l0.6-0.7v0.5
					C6.9,10.7,7.3,12.1,8,12.1z"/>
			</g>
			<g>
				<path class="st6" d="M8,12.1c1.1,0.2,1.1,1.2,1.1,1.2s0.5-1.7,0.7-2.2c0-0.1,0-0.1,0-0.2l-0.6-0.7v0.5C9.1,10.7,8.7,12.1,8,12.1
					z"/>
			</g>
		</g>
		
			<radialGradient id="SVGID_1_" cx="90.7013" cy="-155.0526" r="2.2433" gradientTransform="matrix(0.6092 -1.159 -0.8505 -0.5734 -180.123 28.8006)" gradientUnits="userSpaceOnUse">
			<stop  offset="0.6192" style="stop-color:#F2AD8B"/>
			<stop  offset="1" style="stop-color:#DB8B6F"/>
		</radialGradient>
		<path class="st7" d="M8,12.1L8,12.1c-0.6,0-1.1-0.5-1.1-1.1V9.9c0-0.6,0.5-1.1,1.1-1.1l0,0c0.6,0,1.1,0.5,1.1,1.1v1.1
			C9.1,11.6,8.6,12.1,8,12.1z"/>
		<g>
			<g>
				
					<radialGradient id="SVGID_00000016769392080936490540000017920390061431244430_" cx="4.7866" cy="14.0965" r="7.4511" gradientTransform="matrix(1 0 0 -1 0 18.5)" gradientUnits="userSpaceOnUse">
					<stop  offset="0.6192" style="stop-color:#F2AD8B"/>
					<stop  offset="1" style="stop-color:#DB8B6F"/>
				</radialGradient>
				<path style="fill:url(#SVGID_00000016769392080936490540000017920390061431244430_);" d="M9.1,2.3H6.9c-1.2,0-2.2,1-2.2,2.2v2.7
					c0,1.8,1.5,3.2,3.2,3.2l0,0c1.8,0,3.2-1.5,3.2-3.2V4.5C11.2,3.3,10.3,2.3,9.1,2.3z"/>
				<g class="st9">
					<g>
						<g>
							<path class="st10" d="M8.1,9c-0.5,0-1-0.2-1.4-0.6c0,0,0-0.1,0-0.1c0,0,0.1,0,0.1,0c0.3,0.4,0.8,0.6,1.2,0.6
								c0.4,0,0.9-0.2,1.2-0.5c0,0,0.1,0,0.1,0c0,0,0,0.1,0,0.1C9,8.8,8.5,9,8.1,9z"/>
						</g>
					</g>
				</g>
				<g class="st9">
					<ellipse class="st10" cx="6.7" cy="5.9" rx="0.6" ry="0.6"/>
					<ellipse class="st10" cx="9.5" cy="5.9" rx="0.6" ry="0.6"/>
				</g>
				<g>
					
						<radialGradient id="SVGID_00000108988429013892342490000012170983162647306663_" cx="3.6944" cy="12.7406" r="1.606" gradientTransform="matrix(1 0 0 -1 0 18.5)" gradientUnits="userSpaceOnUse">
						<stop  offset="0.6192" style="stop-color:#F2AD8B"/>
						<stop  offset="1" style="stop-color:#DB8B6F"/>
					</radialGradient>
					<path style="fill:url(#SVGID_00000108988429013892342490000012170983162647306663_);" d="M4.8,5.2v2.1c-0.6,0-1.1-0.5-1.1-1.1
						C3.7,5.7,4.2,5.2,4.8,5.2z"/>
				</g>
				<g>
					
						<radialGradient id="SVGID_00000154422361832634700330000018397181407808979854_" cx="1837.4008" cy="12.7406" r="1.606" gradientTransform="matrix(-1 0 0 -1 1849.7061 18.5)" gradientUnits="userSpaceOnUse">
						<stop  offset="0.6192" style="stop-color:#F2AD8B"/>
						<stop  offset="1" style="stop-color:#DB8B6F"/>
					</radialGradient>
					<path style="fill:url(#SVGID_00000154422361832634700330000018397181407808979854_);" d="M11.2,5.2v2.1c0.6,0,1.1-0.5,1.1-1.1
						C12.3,5.7,11.8,5.2,11.2,5.2z"/>
				</g>
			</g>
			<g>
				<ellipse class="st13" cx="6.6" cy="5.8" rx="0.6" ry="0.6"/>
				<ellipse class="st13" cx="9.4" cy="5.8" rx="0.6" ry="0.6"/>
			</g>
		</g>
		<g>
			<g>
				<path class="st2" d="M11.7,5.6c0-0.2,0-0.4,0-0.7c0-0.2,0.1-0.5,0.2-0.7c0.2-0.5,0.1-1.1-0.1-1.6c-0.2-0.5-0.5-0.9-0.9-1.2
					c-0.1-0.1-0.3-0.2-0.5-0.2c-0.1,0-0.3-0.1-0.4,0c0.2-0.1,0.3-0.3,0.4-0.6c0,0.1-0.6,0-0.7,0C9.4,0.4,9.2,0.4,8.9,0.3
					C8.6,0.2,8.3,0.1,8,0C7.4-0.1,6.7,0.1,6.2,0.5C6,0.6,5.8,0.8,5.6,1.1C5.5,1.2,5.5,1.3,5.5,1.4c0,0,0,0.3,0,0.3
					C5.2,1.8,4.9,1.8,4.6,2C4.3,2.3,4.2,2.6,4.1,2.9C4.1,3.3,4.2,3.7,4.3,4.1c0.1,0.4,0.1,0.8,0.1,1.1c0,0,0.4-0.1,0.4-0.1V4.5
					c0-1.2,1-2.2,2.2-2.2c0,0,2.1,0,2.2,0c0.7,0,1.3,0.3,1.7,0.8c0.3,0.3,0.4,0.8,0.5,1.2c0,0.2,0,0.4,0,0.6c0,0.1,0,0.2,0,0.3
					c0,0.1,0,0.2,0,0.2c0,0.1,0,0.3,0,0.4c0,0.1,0.1,0.2,0.2,0.2c0,0,0.2,0.1,0.2,0.2C11.6,6,11.6,5.8,11.7,5.6z"/>
				<g>
					<g>
						<path class="st2" d="M4.5,6.8h0.3V5.1H4.4v1.6C4.4,6.7,4.4,6.8,4.5,6.8z"/>
					</g>
				</g>
				<g>
					<g>
						<path class="st2" d="M11.5,6.8h-0.3V5.1h0.4v1.6C11.6,6.7,11.6,6.8,11.5,6.8z"/>
					</g>
				</g>
				<path class="st2" d="M4.7,5.9c0,0,0,0.1,0.1,0.1c0,0,0-0.2,0.1-0.2c0-0.1,0-0.1,0.1-0.2C4.9,5.4,5,5.2,5.2,5
					c0.1-0.1,0.2-0.2,0.4-0.3c0.1-0.1,0.2-0.2,0.3-0.3C5.9,4.3,5.9,4.1,5.9,4c0,0,0.2,0.2,0.2,0.2c0.1,0.1,0.2,0.1,0.2,0.2
					c0.2,0.1,0.4,0.2,0.5,0.3c0.4,0.2,0.9,0.2,1.3,0.1c0.2,0,0.5-0.2,0.7-0.3C9.3,4.3,9.5,4.1,9.9,4c0.3,0,0.8,0.1,0.9,0.4
					c0.1,0.3,0,0.7,0.2,1c0,0.1,0.1,0.1,0.1,0.2c0.2,0.2,0.2,0.4,0.2,0.7c0-0.1,0.1-0.3,0.2-0.4c0.1-0.2,0.1-0.3,0.1-0.5
					c0.1-0.4,0.1-0.7,0-1.1c0-0.2-0.1-0.4-0.1-0.5c-0.1-0.2-0.1-0.3-0.1-0.5c-0.1-0.3-0.3-0.6-0.5-0.8C10.1,1.8,9,1.7,8.1,1.7
					C4.5,1.7,4.5,4,4.5,4c0,0.3,0.1,0.5,0.1,0.8c0,0.1,0,0.2,0.1,0.3c0,0.1,0,0.2,0,0.3c0,0.1,0,0.2,0,0.2C4.6,5.8,4.7,5.8,4.7,5.9z
					"/>
			</g>
		</g>
		<g>
			<g>
				<path class="st13" d="M8,8.9c-0.5,0-1-0.2-1.4-0.6c0,0,0-0.1,0-0.1c0,0,0.1,0,0.1,0C7.1,8.5,7.6,8.7,8,8.7
					c0.4,0,0.9-0.2,1.2-0.5c0,0,0.1,0,0.1,0c0,0,0,0.1,0,0.1C9,8.7,8.5,8.9,8,8.9z"/>
			</g>
		</g>
		<g>
			<g>
				<g>
					<path class="st10" d="M9.7,5.5C9.6,5.3,9.5,5.3,9.3,5.3c-0.1,0-0.2,0-0.3,0.1c0,0-0.1,0-0.1,0.1C8.9,5.5,8.9,5.6,8.9,5.8
						C8.9,5.9,9,6,9.1,6.1C9,6,9,5.9,9,5.8c0-0.1,0-0.1,0-0.1c0,0.1,0.1,0.1,0.2,0.1c0.1,0,0.2-0.1,0.2-0.2c0-0.1,0-0.1-0.1-0.2
						c0,0,0.1,0,0.1,0C9.5,5.4,9.6,5.4,9.7,5.5z"/>
				</g>
			</g>
		</g>
		<path class="st10" d="M7,5.5C6.9,5.3,6.8,5.3,6.6,5.3c-0.1,0-0.2,0-0.3,0.1c0,0-0.1,0-0.1,0.1C6.2,5.5,6.2,5.6,6.2,5.8
			c0,0.2,0.1,0.3,0.2,0.4C6.3,6,6.2,5.9,6.2,5.8c0-0.1,0-0.1,0-0.1c0,0.1,0.1,0.1,0.2,0.1c0.1,0,0.2-0.1,0.2-0.2
			c0-0.1,0-0.1-0.1-0.2c0,0,0.1,0,0.1,0C6.8,5.4,6.9,5.4,7,5.5z"/>
		
			<radialGradient id="SVGID_00000043444417463333068430000008031899334666809474_" cx="7.2492" cy="7.61" r="5.3504" gradientTransform="matrix(1 0 0 -1 0 18.5)" gradientUnits="userSpaceOnUse">
			<stop  offset="0.6777" style="stop-color:#1F1E21;stop-opacity:0"/>
			<stop  offset="1" style="stop-color:#1F1E21"/>
		</radialGradient>
		<path style="opacity:0.5;fill:url(#SVGID_00000043444417463333068430000008031899334666809474_);enable-background:new    ;" d="
			M12,13.3C11.4,14.9,9.8,16,8,16s-3.4-1.1-4-2.7c0.4-1.1,1.3-1.9,2.3-2.4c0.5-0.2,1.1-0.3,1.7-0.3c0.6,0,1.2,0.1,1.7,0.3
			c0.5,0.2,1,0.5,1.4,0.9C11.5,12.2,11.8,12.7,12,13.3z"/>
	</g>
</g>
</svg>
